<svg width="3805" height="1343" xmlns="http://www.w3.org/2000/svg" xmlns:xlink="http://www.w3.org/1999/xlink" overflow="hidden"><defs><clipPath id="clip0"><rect x="297" y="792" width="3805" height="1343"/></clipPath></defs><g clip-path="url(#clip0)" transform="translate(-297 -792)"><path d="M1925.5 890.168C1925.5 866.603 1944.6 847.5 1968.17 847.5L2587.83 847.5C2611.4 847.5 2630.5 866.603 2630.5 890.168L2630.5 1060.83C2630.5 1084.4 2611.4 1103.5 2587.83 1103.5L1968.17 1103.5C1944.6 1103.5 1925.5 1084.4 1925.5 1060.83Z" stroke="#DF7E2B" stroke-width="4.58333" stroke-linecap="butt" stroke-linejoin="miter" stroke-miterlimit="8" stroke-opacity="1" fill="#FFFFFF" fill-rule="evenodd" fill-opacity="1"/><text fill="#FFFFFF" fill-opacity="1" font-family="Calibri,Calibri_MSFontService,sans-serif" font-style="normal" font-variant="normal" font-weight="400" font-stretch="normal" font-size="83" text-anchor="start" direction="ltr" writing-mode="lr-tb" unicode-bidi="normal" text-decoration="none" transform="matrix(1 0 0 1 2019.3 1003)">dynamic model</text><path d="M1886.5 924C1886.5 900.528 1905.53 881.5 1929 881.5L2549 881.5C2572.47 881.5 2591.5 900.528 2591.5 924L2591.5 1094C2591.5 1117.47 2572.47 1136.5 2549 1136.5L1929 1136.5C1905.53 1136.5 1886.5 1117.47 1886.5 1094Z" stroke="#DF7E2B" stroke-width="4.58333" stroke-linecap="butt" stroke-linejoin="miter" stroke-miterlimit="8" stroke-opacity="1" fill="#FFFFFF" fill-rule="evenodd" fill-opacity="1"/><text fill="#FFFFFF" fill-opacity="1" font-family="Calibri,Calibri_MSFontService,sans-serif" font-style="normal" font-variant="normal" font-weight="400" font-stretch="normal" font-size="83" text-anchor="start" direction="ltr" writing-mode="lr-tb" unicode-bidi="normal" text-decoration="none" transform="matrix(1 0 0 1 1980.46 1036)">dynamic model</text><path d="M1847.5 957.168C1847.5 933.603 1866.6 914.5 1890.17 914.5L2509.83 914.5C2533.4 914.5 2552.5 933.603 2552.5 957.168L2552.5 1127.83C2552.5 1151.4 2533.4 1170.5 2509.83 1170.5L1890.17 1170.5C1866.6 1170.5 1847.5 1151.4 1847.5 1127.83Z" stroke="#DF7E2B" stroke-width="4.58333" stroke-linecap="butt" stroke-linejoin="miter" stroke-miterlimit="8" stroke-opacity="1" fill="#DF7E2B" fill-rule="evenodd" fill-opacity="1"/><text fill="#FFFFFF" fill-opacity="1" font-family="Calibri,Calibri_MSFontService,sans-serif" font-style="normal" font-variant="normal" font-weight="400" font-stretch="normal" font-size="83" text-anchor="start" direction="ltr" writing-mode="lr-tb" unicode-bidi="normal" text-decoration="none" transform="matrix(1 0 0 1 1900.36 1069)">dynamic model(s)</text><path d="M1847 1503.67C1847 1480.1 1866.1 1461 1889.67 1461L2509.33 1461C2532.9 1461 2552 1480.1 2552 1503.67L2552 1674.33C2552 1697.9 2532.9 1717 2509.33 1717L1889.67 1717C1866.1 1717 1847 1697.9 1847 1674.33Z" fill="#2A7FB8" fill-rule="evenodd" fill-opacity="1"/><text fill="#FFFFFF" fill-opacity="1" font-family="Calibri,Calibri_MSFontService,sans-serif" font-style="normal" font-variant="normal" font-weight="400" font-stretch="normal" font-size="83" text-anchor="start" direction="ltr" writing-mode="lr-tb" unicode-bidi="normal" text-decoration="none" transform="matrix(1 0 0 1 1914.19 1567)">Model predictive <tspan fill="#FFFFFF" fill-opacity="1" font-family="Calibri,Calibri_MSFontService,sans-serif" font-style="normal" font-variant="normal" font-weight="400" font-stretch="normal" font-size="83" text-anchor="start" direction="ltr" writing-mode="lr-tb" unicode-bidi="normal" text-decoration="none" x="166.306" y="99">control</tspan></text><path d="M880 1503.67C880 1480.1 899.103 1461 922.667 1461L1543.33 1461C1566.9 1461 1586 1480.1 1586 1503.67L1586 1674.33C1586 1697.9 1566.9 1717 1543.33 1717L922.667 1717C899.103 1717 880 1697.9 880 1674.33Z" fill="#2A7FB8" fill-rule="evenodd" fill-opacity="1"/><text fill="#FFFFFF" fill-opacity="1" font-family="Calibri,Calibri_MSFontService,sans-serif" font-style="normal" font-variant="normal" font-weight="400" font-stretch="normal" font-size="83" text-anchor="start" direction="ltr" writing-mode="lr-tb" unicode-bidi="normal" text-decoration="none" transform="matrix(1 0 0 1 959.591 1617)">State estimation</text><path d="M2781 1503.67C2781 1480.1 2800.1 1461 2823.67 1461L3443.33 1461C3466.9 1461 3486 1480.1 3486 1503.67L3486 1674.33C3486 1697.9 3466.9 1717 3443.33 1717L2823.67 1717C2800.1 1717 2781 1697.9 2781 1674.33Z" fill="#2A7FB8" fill-rule="evenodd" fill-opacity="1"/><text fill="#FFFFFF" fill-opacity="1" font-family="Calibri,Calibri_MSFontService,sans-serif" font-style="normal" font-variant="normal" font-weight="400" font-stretch="normal" font-size="83" text-anchor="start" direction="ltr" writing-mode="lr-tb" unicode-bidi="normal" text-decoration="none" transform="matrix(1 0 0 1 2870.49 1617)">Simulator/Plant</text><path d="M2201.79 1170.5 2201.79 1439.52 2197.21 1439.52 2197.21 1170.5ZM2213.25 1434.94 2199.5 1462.44 2185.75 1434.94Z" fill="#DF7E2B" fill-rule="nonzero" fill-opacity="1"/><path d="M2552.5 1587.21 2758.42 1587.21 2758.42 1591.79 2552.5 1591.79ZM2753.84 1575.75 2781.34 1589.5 2753.84 1603.25Z" fill="#2A7FB8" fill-rule="nonzero" fill-opacity="1"/><path d="M1586.5 1587.21 1824.83 1587.21 1824.83 1591.79 1586.5 1591.79ZM1820.25 1575.75 1847.75 1589.5 1820.25 1603.25Z" fill="#2A7FB8" fill-rule="nonzero" fill-opacity="1"/><path d="M-0.00399593 2.29166-82.4942 2.29167-80.2026 0-80.2026 320.179-82.4942 317.887 2688.12 317.887 2685.83 320.179 2685.83 4.58333 2688.12 6.875 2628.54 6.875 2628.54 2.29167 2690.41 2.29167 2690.41 322.47-84.7859 322.47-84.7859-2.29167 0.00399593-2.29166ZM2633.12 18.3333 2605.62 4.58333 2633.12-9.16667Z" fill="#2A7FB8" fill-rule="nonzero" fill-opacity="1" transform="matrix(-1 0 0 1 3486.12 1589.5)"/><path d="M0-2.29167 616.131-2.29167 616.131 396.703 611.547 396.703 611.547 0 613.839 2.29167 0 2.29167ZM627.589 392.12 613.839 419.62 600.089 392.12Z" fill="#DF7E2B" fill-rule="nonzero" fill-opacity="1" transform="matrix(-1 1.22465e-16 1.22465e-16 1 1847.34 1042.5)"/><path d="M2552.5 1040.21 3136.22 1040.21 3136.22 1439.2 3131.64 1439.2 3131.64 1042.5 3133.93 1044.79 2552.5 1044.79ZM3147.68 1434.62 3133.93 1462.12 3120.18 1434.62Z" fill="#DF7E2B" fill-rule="nonzero" fill-opacity="1"/><text fill="#DF7E2B" fill-opacity="1" font-family="Akkurat-Light,Akkurat-Light_MSFontService,sans-serif" font-style="normal" font-variant="normal" font-weight="300" font-stretch="normal" font-size="110" text-anchor="start" direction="ltr" writing-mode="lr-tb" unicode-bidi="normal" text-decoration="none" transform="matrix(1 0 0 1 2234.88 1290)">initialize<tspan fill="#DF7E2B" fill-opacity="1" font-family="Akkurat-Light,Akkurat-Light_MSFontService,sans-serif" font-style="normal" font-variant="normal" font-weight="300" font-stretch="normal" font-size="110" text-anchor="start" direction="ltr" writing-mode="lr-tb" unicode-bidi="normal" text-decoration="none" x="455.329" y="-273">initialize</tspan><tspan fill="#DF7E2B" fill-opacity="1" font-family="Akkurat-Light,Akkurat-Light_MSFontService,sans-serif" font-style="normal" font-variant="normal" font-weight="300" font-stretch="normal" font-size="110" text-anchor="start" direction="ltr" writing-mode="lr-tb" unicode-bidi="normal" text-decoration="none" x="-892.556" y="-273">initialize</tspan></text><path d="M303.5 1459.5C303.5 1390.47 359.465 1334.5 428.502 1334.5L3971.5 1334.5C4040.53 1334.5 4096.5 1390.47 4096.5 1459.5L4096.5 1959.5C4096.5 2028.53 4040.53 2084.5 3971.5 2084.5L428.502 2084.5C359.465 2084.5 303.5 2028.53 303.5 1959.5Z" stroke="#343030" stroke-width="4.58333" stroke-linecap="butt" stroke-linejoin="miter" stroke-miterlimit="8" stroke-dasharray="18.3333 13.75" stroke-opacity="1" fill="none" fill-rule="evenodd"/><text fill="#343030" fill-opacity="1" font-family="Akkurat-Light,Akkurat-Light_MSFontService,sans-serif" font-style="normal" font-variant="normal" font-weight="300" font-stretch="normal" font-size="110" text-anchor="start" direction="ltr" writing-mode="lr-tb" unicode-bidi="normal" text-decoration="none" transform="matrix(1 0 0 1 442.683 2040)">Control loop<tspan fill="#343030" fill-opacity="1" font-family="Akkurat-Light,Akkurat-Light_MSFontService,sans-serif" font-style="normal" font-variant="normal" font-weight="300" font-stretch="normal" font-size="83" text-anchor="start" direction="ltr" writing-mode="lr-tb" unicode-bidi="normal" text-decoration="none" x="1494.05" y="-163">measurement</tspan><tspan fill="#343030" fill-opacity="1" font-family="Akkurat-Light,Akkurat-Light_MSFontService,sans-serif" font-style="normal" font-variant="normal" font-weight="300" font-stretch="normal" font-size="83" text-anchor="start" direction="ltr" writing-mode="lr-tb" unicode-bidi="normal" text-decoration="none" x="1174.28" y="-485">state</tspan><tspan fill="#343030" fill-opacity="1" font-family="Akkurat-Light,Akkurat-Light_MSFontService,sans-serif" font-style="normal" font-variant="normal" font-weight="300" font-stretch="normal" font-size="83" text-anchor="start" direction="ltr" writing-mode="lr-tb" unicode-bidi="normal" text-decoration="none" x="2124.51" y="-500">input</tspan></text><rect x="1804" y="800" width="852" height="401" stroke="#DF7E2B" stroke-width="13.75" stroke-linecap="butt" stroke-linejoin="miter" stroke-miterlimit="8" stroke-opacity="1" fill="none"/></g></svg>